<mxfile host="65bd71144e">
    <diagram name="Add One Node IDs Diagram" id="diagram1">
        <mxGraphModel dx="1623" dy="998" grid="1" gridSize="10" guides="1" tooltips="1" connect="1" arrows="1" fold="1" page="1" pageScale="1" pageWidth="850" pageHeight="1100" math="0" shadow="0">
            <root>
                <mxCell id="0"/>
                <mxCell id="1" parent="0"/>
                <mxCell id="title" value="Gds类add_one_node_ids方法工作流程图" style="text;html=1;strokeWidth=0;fillColor=none;fontSize=18;fontFamily=Arial;align=center;" parent="1">
                    <mxGeometry x="300" y="20" width="500" height="30" as="geometry"/>
                </mxCell>
                <mxCell id="legend" value="图例" style="shape=rectangle;strokeWidth=1;fillColor=#f5f5f5;align=center;fontSize=14;fontFamily=Arial;" parent="1">
                    <mxGeometry x="10" y="60" width="120" height="120" as="geometry"/>
                </mxCell>
                <mxCell id="legend_node" value="节点" style="shape=ellipse;strokeWidth=2;fillColor=none;" parent="1">
                    <mxGeometry x="20" y="90" width="30" height="30" as="geometry"/>
                </mxCell>
                <mxCell id="legend_text1" value="节点" style="text;html=1;strokeWidth=0;fillColor=none;" parent="1">
                    <mxGeometry x="60" y="95" width="60" height="20" as="geometry"/>
                </mxCell>
                <mxCell id="legend_source" value="源节点" style="shape=ellipse;strokeWidth=2;fillColor=#ccffcc;" parent="1">
                    <mxGeometry x="20" y="120" width="30" height="30" as="geometry"/>
                </mxCell>
                <mxCell id="legend_text2" value="源节点" style="text;html=1;strokeWidth=0;fillColor=none;" parent="1">
                    <mxGeometry x="60" y="125" width="60" height="20" as="geometry"/>
                </mxCell>
                <mxCell id="legend_edge" value="边" style="shape=line;strokeWidth=1;" parent="1">
                    <mxGeometry x="20" y="150" width="30" as="geometry"/>
                </mxCell>
                <mxCell id="legend_text3" value="边" style="text;html=1;strokeWidth=0;fillColor=none;" parent="1">
                    <mxGeometry x="60" y="145" width="60" height="20" as="geometry"/>
                </mxCell>
                <mxCell id="node1" value="节点1" style="shape=ellipse;strokeWidth=2;fillColor=#ccffcc;" parent="1">
                    <mxGeometry x="300" y="200" width="60" height="60" as="geometry"/>
                </mxCell>
                <mxCell id="node2" value="节点2" style="shape=ellipse;strokeWidth=2;fillColor=none;" parent="1">
                    <mxGeometry x="400" y="150" width="60" height="60" as="geometry"/>
                </mxCell>
                <mxCell id="node3" value="节点3" style="shape=ellipse;strokeWidth=2;fillColor=none;" parent="1">
                    <mxGeometry x="400" y="250" width="60" height="60" as="geometry"/>
                </mxCell>
                <mxCell id="node4" value="节点4" style="shape=ellipse;strokeWidth=2;fillColor=none;" parent="1">
                    <mxGeometry x="500" y="150" width="60" height="60" as="geometry"/>
                </mxCell>
                <mxCell id="node5" value="节点5" style="shape=ellipse;strokeWidth=2;fillColor=none;" parent="1">
                    <mxGeometry x="500" y="250" width="60" height="60" as="geometry"/>
                </mxCell>
                <mxCell id="edge1-2" style="shape=line;strokeWidth=1;" parent="1" source="node1" target="node2">
                    <mxGeometry as="geometry"/>
                </mxCell>
                <mxCell id="edge1-3" style="shape=line;strokeWidth=1;" parent="1" source="node1" target="node3">
                    <mxGeometry as="geometry"/>
                </mxCell>
                <mxCell id="edge2-4" style="shape=line;strokeWidth=1;" parent="1" source="node2" target="node4">
                    <mxGeometry as="geometry"/>
                </mxCell>
                <mxCell id="edge3-5" style="shape=line;strokeWidth=1;" parent="1" source="node3" target="node5">
                    <mxGeometry as="geometry"/>
                </mxCell>
                <mxCell id="edge2-3" style="shape=line;strokeWidth=1;" parent="1" source="node2" target="node3">
                    <mxGeometry as="geometry"/>
                </mxCell>
                <mxCell id="edge4-5" style="shape=line;strokeWidth=1;" parent="1" source="node4" target="node5">
                    <mxGeometry as="geometry"/>
                </mxCell>
                <mxCell id="step1" value="步骤1: 初始化 node_ids = [1]" style="shape=rectangle;strokeWidth=1;fillColor=none;" parent="1">
                    <mxGeometry x="650" y="100" width="150" height="60" as="geometry"/>
                </mxCell>
                <mxCell id="step2" value="步骤2: 遍历node_ids for node_id in node_ids:" style="shape=rectangle;strokeWidth=1;fillColor=none;" parent="1">
                    <mxGeometry x="650" y="180" width="150" height="60" as="geometry"/>
                </mxCell>
                <mxCell id="step3" value="步骤3: 获取原始消息 origin_msg = json.loads(self.nodeid_msg_dict[node_id])" style="shape=rectangle;strokeWidth=1;fillColor=none;" parent="1">
                    <mxGeometry x="650" y="260" width="150" height="60" as="geometry"/>
                </mxCell>
                <mxCell id="step4" value="步骤4: 创建新消息 add_msg = {str(node_id): 1}" style="shape=rectangle;strokeWidth=1;fillColor=none;" parent="1">
                    <mxGeometry x="650" y="340" width="150" height="60" as="geometry"/>
                </mxCell>
                <mxCell id="step5" value="步骤5: 更新原始消息 origin_msg.update(add_msg)" style="shape=rectangle;strokeWidth=1;fillColor=none;" parent="1">
                    <mxGeometry x="650" y="420" width="150" height="60" as="geometry"/>
                </mxCell>
                <mxCell id="step6" value="步骤6: 合并消息 buffer = [add_msg, origin_msg] merged_dict = merge_dicts_with_sum(buffer)" style="shape=rectangle;strokeWidth=1;fillColor=none;" parent="1">
                    <mxGeometry x="650" y="500" width="150" height="80" as="geometry"/>
                </mxCell>
                <mxCell id="step7" value="步骤7: 保存结果 self.nodeid_msg_dict[node_id] = json.dumps(merged_dict) self.normalize_node_id(node_id)" style="shape=rectangle;strokeWidth=1;fillColor=none;" parent="1">
                    <mxGeometry x="650" y="590" width="150" height="80" as="geometry"/>
                </mxCell>
                <mxCell id="msg_before" value="原始消息: {}" style="shape=rectangle;strokeWidth=1;fillColor=none;" parent="1">
                    <mxGeometry x="300" y="350" width="200" height="40" as="geometry"/>
                </mxCell>
                <mxCell id="msg_add" value="添加消息: {&#39;1&#39;: 1}" style="shape=rectangle;strokeWidth=1;fillColor=none;" parent="1">
                    <mxGeometry x="300" y="410" width="200" height="40" as="geometry"/>
                </mxCell>
                <mxCell id="msg_after" value="合并后消息: {&#39;1&#39;: 1}" style="shape=rectangle;strokeWidth=1;fillColor=none;" parent="1">
                    <mxGeometry x="300" y="470" width="200" height="40" as="geometry"/>
                </mxCell>
                <mxCell id="arrow_step1-2" style="shape=arrow;strokeWidth=1;" parent="1" source="step1" target="step2">
                    <mxGeometry as="geometry"/>
                </mxCell>
                <mxCell id="arrow_step2-3" style="shape=arrow;strokeWidth=1;" parent="1" source="step2" target="step3">
                    <mxGeometry as="geometry"/>
                </mxCell>
                <mxCell id="arrow_step3-4" style="shape=arrow;strokeWidth=1;" parent="1" source="step3" target="step4">
                    <mxGeometry as="geometry"/>
                </mxCell>
                <mxCell id="arrow_step4-5" style="shape=arrow;strokeWidth=1;" parent="1" source="step4" target="step5">
                    <mxGeometry as="geometry"/>
                </mxCell>
                <mxCell id="arrow_step5-6" style="shape=arrow;strokeWidth=1;" parent="1" source="step5" target="step6">
                    <mxGeometry as="geometry"/>
                </mxCell>
                <mxCell id="arrow_step6-7" style="shape=arrow;strokeWidth=1;" parent="1" source="step6" target="step7">
                    <mxGeometry as="geometry"/>
                </mxCell>
                <mxCell id="arrow_node1-step2" style="shape=dashed;strokeWidth=1;" parent="1" source="node1" target="step2">
                    <mxGeometry as="geometry"/>
                </mxCell>
                <mxCell id="arrow_step3-msg_before" style="shape=dashed;strokeWidth=1;" parent="1" source="step3" target="msg_before">
                    <mxGeometry as="geometry"/>
                </mxCell>
                <mxCell id="arrow_step4-msg_add" style="shape=dashed;strokeWidth=1;" parent="1" source="step4" target="msg_add">
                    <mxGeometry as="geometry"/>
                </mxCell>
                <mxCell id="arrow_step6-msg_after" style="shape=dashed;strokeWidth=1;" parent="1" source="step6" target="msg_after">
                    <mxGeometry as="geometry"/>
                </mxCell>
                <mxCell id="4" value="" style="group" parent="1" vertex="1" connectable="0">
                    <mxGeometry x="345" y="35" width="210" height="210" as="geometry"/>
                </mxCell>
                <mxCell id="2" value="" style="ellipse;whiteSpace=wrap;html=1;aspect=fixed;fillColor=none;" parent="4" vertex="1">
                    <mxGeometry width="210" height="210" as="geometry"/>
                </mxCell>
                <mxCell id="3" value="1" style="ellipse;whiteSpace=wrap;html=1;aspect=fixed;strokeColor=default;fillColor=none;" parent="4" vertex="1">
                    <mxGeometry x="80" y="75" width="50" height="50" as="geometry"/>
                </mxCell>
                <mxCell id="33" value="&lt;font style=&quot;font-size: 24px;&quot;&gt;[{&quot;2&quot;:1},{&quot;3&quot;:1},{&quot;5&quot;:1]&lt;/font&gt;" style="text;html=1;align=center;verticalAlign=middle;whiteSpace=wrap;rounded=0;" parent="4" vertex="1">
                    <mxGeometry x="-5" y="35" width="215" height="30" as="geometry"/>
                </mxCell>
                <mxCell id="5" value="" style="group" parent="1" vertex="1" connectable="0">
                    <mxGeometry x="100" y="430" width="215" height="210" as="geometry"/>
                </mxCell>
                <mxCell id="6" value="" style="ellipse;whiteSpace=wrap;html=1;aspect=fixed;fillColor=none;" parent="5" vertex="1">
                    <mxGeometry width="210" height="210" as="geometry"/>
                </mxCell>
                <mxCell id="7" value="2" style="ellipse;whiteSpace=wrap;html=1;aspect=fixed;strokeColor=default;fillColor=none;" parent="5" vertex="1">
                    <mxGeometry x="80" y="75" width="50" height="50" as="geometry"/>
                </mxCell>
                <mxCell id="34" value="&lt;font style=&quot;font-size: 24px;&quot;&gt;[{&quot;1&quot;:1}]&lt;/font&gt;" style="text;html=1;align=center;verticalAlign=middle;whiteSpace=wrap;rounded=0;" parent="5" vertex="1">
                    <mxGeometry x="-10" y="30" width="215" height="30" as="geometry"/>
                </mxCell>
                <mxCell id="8" value="" style="group" parent="1" vertex="1" connectable="0">
                    <mxGeometry x="440" y="690" width="215" height="210" as="geometry"/>
                </mxCell>
                <mxCell id="9" value="" style="ellipse;whiteSpace=wrap;html=1;aspect=fixed;fillColor=none;" parent="8" vertex="1">
                    <mxGeometry width="210" height="210" as="geometry"/>
                </mxCell>
                <mxCell id="10" value="3" style="ellipse;whiteSpace=wrap;html=1;aspect=fixed;strokeColor=default;fillColor=none;" parent="8" vertex="1">
                    <mxGeometry x="80" y="75" width="50" height="50" as="geometry"/>
                </mxCell>
                <mxCell id="36" value="&lt;font style=&quot;font-size: 24px;&quot;&gt;[{&quot;1&quot;:1},{&quot;4&quot;:1]&lt;/font&gt;" style="text;html=1;align=center;verticalAlign=middle;whiteSpace=wrap;rounded=0;" parent="8" vertex="1">
                    <mxGeometry y="30" width="215" height="30" as="geometry"/>
                </mxCell>
                <mxCell id="11" value="" style="group" parent="1" vertex="1" connectable="0">
                    <mxGeometry x="880" y="520" width="212.5" height="210" as="geometry"/>
                </mxCell>
                <mxCell id="12" value="" style="ellipse;whiteSpace=wrap;html=1;aspect=fixed;fillColor=none;" parent="11" vertex="1">
                    <mxGeometry width="210" height="210" as="geometry"/>
                </mxCell>
                <mxCell id="13" value="4" style="ellipse;whiteSpace=wrap;html=1;aspect=fixed;strokeColor=default;fillColor=none;" parent="11" vertex="1">
                    <mxGeometry x="80" y="75" width="50" height="50" as="geometry"/>
                </mxCell>
                <mxCell id="37" value="&lt;font style=&quot;font-size: 24px;&quot;&gt;[{&quot;3&quot;:1},{&quot;5&quot;:1]&lt;/font&gt;" style="text;html=1;align=center;verticalAlign=middle;whiteSpace=wrap;rounded=0;" vertex="1" parent="11">
                    <mxGeometry x="-2.5" y="30" width="215" height="30" as="geometry"/>
                </mxCell>
                <mxCell id="14" value="" style="group" parent="1" vertex="1" connectable="0">
                    <mxGeometry x="770" y="100" width="235" height="210" as="geometry"/>
                </mxCell>
                <mxCell id="15" value="" style="ellipse;whiteSpace=wrap;html=1;aspect=fixed;fillColor=none;" parent="14" vertex="1">
                    <mxGeometry width="210" height="210" as="geometry"/>
                </mxCell>
                <mxCell id="16" value="5" style="ellipse;whiteSpace=wrap;html=1;aspect=fixed;strokeColor=default;fillColor=none;" parent="14" vertex="1">
                    <mxGeometry x="80" y="75" width="50" height="50" as="geometry"/>
                </mxCell>
                <mxCell id="35" value="&lt;font style=&quot;font-size: 24px;&quot;&gt;[{&quot;1&quot;:1},{&quot;4&quot;:1}]&lt;/font&gt;" style="text;html=1;align=center;verticalAlign=middle;whiteSpace=wrap;rounded=0;" parent="14" vertex="1">
                    <mxGeometry x="3" y="40" width="215" height="30" as="geometry"/>
                </mxCell>
                <mxCell id="17" style="html=1;entryX=0.27;entryY=0.93;entryDx=0;entryDy=0;entryPerimeter=0;shape=link;" parent="1" source="6" target="2" edge="1">
                    <mxGeometry relative="1" as="geometry"/>
                </mxCell>
                <mxCell id="18" style="html=1;shape=link;" parent="1" source="2" target="15" edge="1">
                    <mxGeometry relative="1" as="geometry"/>
                </mxCell>
                <mxCell id="19" style="html=1;entryX=0.38;entryY=0.017;entryDx=0;entryDy=0;entryPerimeter=0;shape=link;" parent="1" source="15" target="12" edge="1">
                    <mxGeometry relative="1" as="geometry"/>
                </mxCell>
                <mxCell id="20" style="html=1;entryX=0.442;entryY=-0.009;entryDx=0;entryDy=0;entryPerimeter=0;shape=link;" parent="1" source="2" target="9" edge="1">
                    <mxGeometry relative="1" as="geometry"/>
                </mxCell>
                <mxCell id="21" style="html=1;entryX=0.023;entryY=0.654;entryDx=0;entryDy=0;entryPerimeter=0;shape=link;" parent="1" source="9" target="12" edge="1">
                    <mxGeometry relative="1" as="geometry"/>
                </mxCell>
                <mxCell id="22" value="&lt;font style=&quot;font-size: 36px;&quot;&gt;sim.emit_to_buffer()&lt;/font&gt;" style="text;html=1;align=center;verticalAlign=middle;whiteSpace=wrap;rounded=0;" parent="1" vertex="1">
                    <mxGeometry x="1000" y="30" width="210" height="30" as="geometry"/>
                </mxCell>
                <mxCell id="28" style="edgeStyle=none;html=1;" parent="1" source="23" target="3" edge="1">
                    <mxGeometry relative="1" as="geometry"/>
                </mxCell>
                <mxCell id="23" value="&lt;font style=&quot;font-size: 24px;&quot;&gt;r_msg ={}&lt;/font&gt;" style="text;html=1;align=center;verticalAlign=middle;whiteSpace=wrap;rounded=0;" parent="1" vertex="1">
                    <mxGeometry x="530" y="5" width="215" height="30" as="geometry"/>
                </mxCell>
                <mxCell id="29" style="edgeStyle=none;html=1;entryX=0;entryY=0.5;entryDx=0;entryDy=0;" parent="1" source="24" target="7" edge="1">
                    <mxGeometry relative="1" as="geometry"/>
                </mxCell>
                <mxCell id="24" value="&lt;font style=&quot;font-size: 24px;&quot;&gt;r_msg ={}&lt;/font&gt;" style="text;html=1;align=center;verticalAlign=middle;whiteSpace=wrap;rounded=0;" parent="1" vertex="1">
                    <mxGeometry x="-100" y="400" width="215" height="30" as="geometry"/>
                </mxCell>
                <mxCell id="30" style="edgeStyle=none;html=1;entryX=0;entryY=0.5;entryDx=0;entryDy=0;" parent="1" source="25" target="10" edge="1">
                    <mxGeometry relative="1" as="geometry"/>
                </mxCell>
                <mxCell id="25" value="&lt;font style=&quot;font-size: 24px;&quot;&gt;r_msg ={}&lt;/font&gt;" style="text;html=1;align=center;verticalAlign=middle;whiteSpace=wrap;rounded=0;" parent="1" vertex="1">
                    <mxGeometry x="180" y="800" width="215" height="30" as="geometry"/>
                </mxCell>
                <mxCell id="31" style="edgeStyle=none;html=1;entryX=1;entryY=1;entryDx=0;entryDy=0;" parent="1" source="26" target="13" edge="1">
                    <mxGeometry relative="1" as="geometry"/>
                </mxCell>
                <mxCell id="26" value="&lt;font style=&quot;font-size: 24px;&quot;&gt;r_msg ={}&lt;/font&gt;" style="text;html=1;align=center;verticalAlign=middle;whiteSpace=wrap;rounded=0;" parent="1" vertex="1">
                    <mxGeometry x="1070" y="780" width="215" height="30" as="geometry"/>
                </mxCell>
                <mxCell id="32" style="edgeStyle=none;html=1;" parent="1" source="27" target="16" edge="1">
                    <mxGeometry relative="1" as="geometry"/>
                </mxCell>
                <mxCell id="27" value="&lt;font style=&quot;font-size: 24px;&quot;&gt;r_msg ={}&lt;/font&gt;" style="text;html=1;align=center;verticalAlign=middle;whiteSpace=wrap;rounded=0;" parent="1" vertex="1">
                    <mxGeometry x="1030" y="240" width="215" height="30" as="geometry"/>
                </mxCell>
            </root>
        </mxGraphModel>
    </diagram>
</mxfile>